<?xml version="1.0" encoding="UTF-8" standalone="no"?>
<!DOCTYPE svg PUBLIC "-//W3C//DTD SVG 1.1//EN" "http://www.w3.org/Graphics/SVG/1.1/DTD/svg11.dtd">
<svg width="100%" height="100%" viewBox="0 0 996 603" version="1.1" xmlns="http://www.w3.org/2000/svg" xmlns:xlink="http://www.w3.org/1999/xlink" xml:space="preserve" xmlns:serif="http://www.serif.com/" style="fill-rule:evenodd;clip-rule:evenodd;stroke-linejoin:round;stroke-miterlimit:2;">
    <g transform="matrix(1,0,0,1,-222.038,-418.76)">
        <g>
            <path d="M838.99,745.987C839.589,745.962 840.19,745.938 840.796,745.915L1210.89,745.915C1214.75,745.915 1217.96,749.128 1217.96,752.983C1217.96,755.339 1216.68,757.481 1214.75,758.766L861.785,1019.85C860.607,1020.71 859.108,1021.24 857.609,1021.24L487.618,1021.24C483.763,1021.24 480.657,1018.13 480.657,1014.28C480.657,1012.03 481.728,1010 483.334,1008.71L625.012,904.192L623.754,904.192L697.366,850.085C709.133,908.641 719.38,978.033 720.107,982.902C721.011,976.845 736.568,870.963 751.508,810.289L838.99,745.987ZM526.878,745.915L311.545,904.192L252.88,904.192C248.917,904.192 245.812,901.087 245.812,897.232C245.812,894.876 246.99,892.734 248.81,891.449L443.497,747.95C444.782,746.772 446.496,745.915 448.423,745.915L526.878,745.915ZM617.024,746.907C639.814,748.698 653.24,752.142 661.744,757.695C674.38,766.155 678.128,775.793 680.484,782.218C681.604,785.3 682.746,788.829 683.901,792.731L532.259,904.192L403.04,904.192L617.024,746.907Z" style="fill:rgb(33,170,255);fill-rule:nonzero;"/>
            <path d="M597.539,693.978L228.999,694.085C225.144,694.085 222.038,690.979 222.038,687.124C222.038,684.982 222.895,683.162 224.501,681.876L235.746,673.524L578.215,420.259C579.393,419.295 580.892,418.76 582.605,418.76L952.596,418.76C956.452,418.76 959.557,421.865 959.557,425.828C959.557,426.651 959.414,427.445 959.147,428.184L742.235,587.622C730.662,529.57 720.717,461.904 720,457.098C719.111,463.051 703.995,565.429 689.268,626.554L597.539,693.978ZM1124.94,535.808L1187.55,535.808C1191.4,535.808 1194.51,538.913 1194.51,542.768C1194.51,545.124 1193.33,547.266 1191.62,548.551L995.646,692.8C994.468,693.549 993.076,693.977 991.577,693.977L909.748,693.977L1124.94,535.808ZM904.222,535.808L1033.44,535.808L819.887,692.777C798.99,690.97 786.38,687.594 778.363,682.305C765.727,673.845 761.979,664.207 759.623,657.782C758.289,654.136 756.927,649.864 755.549,645.087L904.222,535.808Z" style="fill:rgb(255,22,239);fill-rule:nonzero;"/>
        </g>
    </g>
</svg>
